<svg id="Layer_1" data-name="Layer 1" xmlns="http://www.w3.org/2000/svg" viewBox="647.6174926757812 426.4051513671875 216.84271240234375 228.48529052734375" width="149" height="157" style="">
  <defs>
    <style>
      .cls-1 {
        opacity: .9;
      }

      .cls-1, .cls-2 {
        fill: #231f20;
      }
    </style>
  </defs>
  <g>
    <path class="cls-2" d="M834.4,515.24v55.54c-.2.46-.41.93-.62,1.38-1.5,3.21-3.31,6.25-5.39,9.09-1.18,1.6-2.45,3.14-3.8,4.6l-13.04,7.52-38.09-58.04s14.83-12.97,54.02-25.16c-13.83-1.98-40.52,4.43-58.22,12.73-.12-.27-.25-.51-.4-.76h0c-.21-.38-.45-.73-.7-1.06-.15-.2-.31-.4-.48-.59-.15-.17-.3-.33-.46-.48-.12-.12-.25-.24-.38-.36-2.59-2.29-6.26-3.09-9.6-2-.09.02-.18.05-.26.09-.14.04-.27.09-.4.14-.03.01-.05.02-.07.03-.22.09-.44.19-.65.3-.22.11-.44.23-.65.36-.09.05-.18.11-.27.17-.17.1-.34.21-.5.34-.04.02-.09.06-.13.09-.4.3-.77.62-1.11.97-.02.02-.04.04-.05.05-.09.1-.18.19-.26.29-.24.26-.45.52-.64.8-.1.13-.19.25-.27.38-.12.18-.23.36-.33.55-.09.16-.18.32-.25.48-.04.05-.06.11-.08.16-.07.13-.13.26-.18.39-.06.14-.11.28-.16.43-.12.29-.21.6-.29.9-.04.16-.08.31-.1.47-.03.08-.04.15-.05.22-.03.11-.05.22-.06.33-.03.16-.05.32-.06.48-.02.11-.03.22-.03.34-.14,1.9.27,3.86,1.3,5.63.14.26.3.5.47.73-16.01,11.16-34.24,30.7-40.14,44.06,27.45-26.28,48.82-34.2,48.82-34.2l31.2,62-13.08,7.55c-2.33.43-4.7.7-7.08.8-.55.02-1.11.03-1.67.03h-.08c-2.78,0-5.53-.16-8.23-.48l-47.85-27.63c-3.26-4.34-6.01-9.08-8.19-14.12v-55.54c2.15-4.97,4.86-9.65,8.05-13.94l48.2-27.82c2.63-.31,5.31-.46,8.02-.46s5.39.15,8.02.46l48.2,27.82c3.19,4.29,5.9,8.97,8.05,13.94Z"/>
    <g>
      <path class="cls-2" d="M866.07,527.51v-59.53h11.4l35.12,42.86h-5.53v-42.86h13.61v59.53h-11.31l-35.21-42.86h5.53v42.86h-13.61Z"/>
      <path class="cls-2" d="M926.96,527.51l26.53-59.53h13.61l26.62,59.53h-14.46l-21.77-52.56h5.44l-21.86,52.56h-14.12ZM940.23,514.75l3.66-10.46h30.62l3.74,10.46h-38.02Z"/>
      <path class="cls-2" d="M999.93,527.51v-59.53h11.4l25.34,42.01h-6.04l24.92-42.01h11.31l.17,59.53h-12.93l-.09-39.72h2.38l-19.9,33.42h-6.21l-20.33-33.42h2.89v39.72h-12.93Z"/>
      <path class="cls-2" d="M866.07,604.5v-59.53h25.43c8.28,0,14.71,1.91,19.31,5.74,4.59,3.83,6.89,9.11,6.89,15.86,0,4.42-1.05,8.24-3.15,11.44-2.1,3.2-5.07,5.66-8.93,7.36-3.86,1.7-8.45,2.55-13.78,2.55h-18.11l6.12-6.04v22.62h-13.78ZM879.85,583.41l-6.12-6.46h17.35c4.25,0,7.43-.92,9.53-2.76,2.1-1.84,3.15-4.38,3.15-7.61s-1.05-5.84-3.15-7.65c-2.1-1.81-5.27-2.72-9.53-2.72h-17.35l6.12-6.55v33.76ZM903.92,604.5l-14.88-21.6h14.71l15.05,21.6h-14.88Z"/>
      <path class="cls-2" d="M950.35,605.18c-5.22,0-9.8-1.02-13.73-3.06-3.94-2.04-6.99-4.83-9.14-8.38-2.16-3.54-3.23-7.58-3.23-12.12s1.06-8.66,3.19-12.2c2.13-3.54,5.03-6.32,8.72-8.33,3.68-2.01,7.85-3.02,12.5-3.02s8.52.95,12.12,2.85c3.6,1.9,6.45,4.62,8.55,8.16,2.1,3.54,3.15,7.78,3.15,12.71,0,.51-.03,1.09-.09,1.74-.06.65-.11,1.26-.17,1.83h-37.17v-7.74h30.19l-5.1,2.3c0-2.38-.48-4.45-1.45-6.21-.96-1.76-2.3-3.13-4-4.12-1.7-.99-3.69-1.49-5.95-1.49s-4.27.5-6,1.49c-1.73.99-3.08,2.38-4.04,4.17-.96,1.79-1.45,3.9-1.45,6.34v2.04c0,2.5.55,4.69,1.66,6.59,1.11,1.9,2.66,3.35,4.68,4.34,2.01.99,4.38,1.49,7.1,1.49,2.44,0,4.58-.37,6.42-1.11,1.84-.74,3.53-1.84,5.06-3.32l7.06,7.65c-2.1,2.38-4.73,4.21-7.91,5.49-3.18,1.28-6.83,1.91-10.97,1.91Z"/>
      <path class="cls-2" d="M990.92,604.5l-16.5-45.76h12.5l13.69,39.38h-5.95l14.29-39.38h11.23l13.86,39.38h-5.95l14.12-39.38h11.74l-16.58,45.76h-12.84l-12.16-33.76h3.91l-12.59,33.76h-12.76Z"/>
      <path class="cls-2" d="M1072.39,605.18c-3.57,0-6.63-.61-9.18-1.83-2.55-1.22-4.51-2.88-5.87-4.98-1.36-2.1-2.04-4.45-2.04-7.06s.67-5.1,2-7.14c1.33-2.04,3.44-3.64,6.34-4.8,2.89-1.16,6.66-1.74,11.31-1.74h12.16v7.74h-10.72c-3.12,0-5.26.51-6.42,1.53-1.16,1.02-1.74,2.3-1.74,3.83,0,1.7.67,3.05,2,4.04,1.33.99,3.16,1.49,5.49,1.49s4.2-.52,5.95-1.57c1.76-1.05,3.03-2.59,3.83-4.64l2.04,6.12c-.96,2.95-2.72,5.19-5.27,6.72-2.55,1.53-5.84,2.3-9.87,2.3ZM1086.34,604.5v-8.93l-.85-1.96v-15.99c0-2.83-.87-5.05-2.59-6.63-1.73-1.59-4.38-2.38-7.95-2.38-2.44,0-4.83.38-7.19,1.15-2.35.77-4.35,1.8-6,3.1l-4.76-9.27c2.49-1.76,5.5-3.12,9.01-4.08,3.51-.96,7.09-1.45,10.72-1.45,6.97,0,12.39,1.64,16.24,4.93,3.85,3.29,5.78,8.42,5.78,15.39v26.11h-12.42Z"/>
      <path class="cls-2" d="M1110.75,604.5v-45.76h12.67v12.93l-1.79-3.74c1.36-3.23,3.54-5.68,6.55-7.36,3-1.67,6.66-2.51,10.97-2.51v12.25c-.57-.06-1.08-.1-1.53-.13-.45-.03-.94-.04-1.45-.04-3.63,0-6.56,1.04-8.8,3.1-2.24,2.07-3.36,5.29-3.36,9.65v21.6h-13.27Z"/>
      <path class="cls-2" d="M1166.28,605.18c-4.31,0-8.19-.98-11.65-2.93-3.46-1.96-6.19-4.69-8.21-8.21-2.01-3.51-3.02-7.65-3.02-12.42s1.01-8.99,3.02-12.5c2.01-3.51,4.75-6.24,8.21-8.16,3.46-1.93,7.34-2.89,11.65-2.89,3.86,0,7.23.85,10.12,2.55,2.89,1.7,5.13,4.28,6.72,7.74,1.59,3.46,2.38,7.88,2.38,13.27s-.77,9.74-2.3,13.22c-1.53,3.49-3.73,6.08-6.59,7.78-2.86,1.7-6.31,2.55-10.33,2.55ZM1168.58,594.29c2.15,0,4.11-.51,5.87-1.53,1.76-1.02,3.16-2.48,4.21-4.38,1.05-1.9,1.57-4.15,1.57-6.76s-.52-4.93-1.57-6.8c-1.05-1.87-2.45-3.32-4.21-4.34-1.76-1.02-3.71-1.53-5.87-1.53s-4.2.51-5.95,1.53c-1.76,1.02-3.16,2.47-4.21,4.34-1.05,1.87-1.57,4.14-1.57,6.8s.52,4.86,1.57,6.76c1.05,1.9,2.45,3.36,4.21,4.38,1.76,1.02,3.74,1.53,5.95,1.53ZM1180.57,604.5v-9.35l.25-13.61-.85-13.52v-26.62h13.27v63.1h-12.67Z"/>
      <path class="cls-2" d="M1220.88,605.18c-3.91,0-7.67-.47-11.27-1.4-3.6-.94-6.45-2.11-8.55-3.53l4.42-9.53c2.1,1.3,4.58,2.37,7.44,3.19,2.86.82,5.68,1.23,8.46,1.23,3.06,0,5.23-.37,6.51-1.11,1.28-.74,1.91-1.76,1.91-3.06,0-1.08-.5-1.88-1.49-2.42-.99-.54-2.31-.95-3.95-1.23-1.65-.28-3.44-.57-5.4-.85-1.96-.28-3.93-.67-5.91-1.15-1.99-.48-3.8-1.2-5.44-2.17-1.64-.96-2.96-2.27-3.95-3.91-.99-1.64-1.49-3.77-1.49-6.38,0-2.89.84-5.44,2.51-7.65,1.67-2.21,4.1-3.95,7.27-5.23,3.17-1.28,6.97-1.91,11.4-1.91,3.12,0,6.29.34,9.53,1.02,3.23.68,5.92,1.67,8.08,2.98l-4.42,9.44c-2.21-1.3-4.44-2.2-6.68-2.68-2.24-.48-4.41-.72-6.51-.72-2.95,0-5.1.4-6.46,1.19-1.36.79-2.04,1.82-2.04,3.06,0,1.13.5,1.99,1.49,2.55.99.57,2.31,1.02,3.95,1.36,1.64.34,3.44.64,5.4.89,1.96.25,3.93.64,5.91,1.15,1.98.51,3.78,1.23,5.4,2.17,1.62.94,2.93,2.21,3.95,3.83,1.02,1.62,1.53,3.73,1.53,6.34,0,2.84-.85,5.34-2.55,7.53-1.7,2.18-4.15,3.9-7.36,5.15-3.2,1.25-7.1,1.87-11.69,1.87Z"/>
    </g>
    <path class="cls-2" d="M840.13,543.01c0,9.87-2.04,19.26-5.73,27.77-.2.46-.41.93-.62,1.38-1.5,3.21-3.31,6.25-5.39,9.09-1.18,1.6-2.45,3.14-3.8,4.6-1.39,1.5-2.86,2.92-4.41,4.25l-6.89,5.92-1.74-2.65-6.21-9.46-31.88-48.58s11.05-9.67,39.3-20.15c4.47-1.67,9.37-3.35,14.72-5.01-4.51-.65-10.38-.4-16.86.52-13.41,1.88-29.42,6.62-41.36,12.21-.12-.27-.25-.51-.4-.76h0c-.21-.38-.45-.73-.7-1.06-.15-.2-.31-.4-.48-.59-.15-.17-.3-.33-.46-.48-.12-.12-.25-.24-.38-.36-2.22-2.01-5.28-2.98-8.3-2.36-.45.09-.89.21-1.3.36-.09.02-.18.05-.26.09-.14.04-.27.09-.4.14-.03.01-.05.02-.07.03-.22.09-.44.19-.65.3-.22.11-.44.23-.65.36-.09.05-.18.1-.27.17-.17.1-.34.21-.5.34-.04.02-.09.06-.13.09-.4.3-.77.62-1.11.97l-.05.05c-.09.1-.18.19-.26.29-.24.26-.45.52-.64.8-.1.13-.19.25-.27.38-.12.18-.23.36-.33.55-.09.16-.18.32-.25.48-.04.05-.06.11-.08.16-.07.13-.13.26-.18.39-.06.14-.12.28-.16.43-.12.29-.21.6-.29.9-.04.16-.08.31-.1.47-.03.08-.04.15-.05.22-.03.11-.05.22-.06.33-.03.16-.05.32-.06.48-.02.11-.03.22-.03.34-.14,1.9.27,3.86,1.3,5.63.14.26.3.5.47.73-16.01,11.16-34.24,30.7-40.14,44.06,27.45-26.28,48.82-34.2,48.82-34.2l28.73,57.09,2.47,4.91,1.87,3.71-10.49,2.83c-1.47.4-2.96.74-4.46,1.01-2.33.43-4.7.7-7.08.8-.55.02-1.11.03-1.67.03h-.08c-2.78,0-5.53-.16-8.23-.48-.85-.1-1.69-.21-2.53-.35-18.49-2.85-34.6-12.93-45.32-27.28-3.26-4.34-6.01-9.08-8.19-14.12-3.69-8.51-5.73-17.9-5.73-27.77s2.04-19.26,5.73-27.77c2.15-4.97,4.86-9.65,8.05-13.94,10.73-14.43,26.88-24.59,45.43-27.44.92-.15,1.84-.27,2.77-.38,2.63-.31,5.31-.46,8.02-.46s5.39.15,8.02.46c19.71,2.24,36.94,12.68,48.2,27.82,3.19,4.29,5.9,8.97,8.05,13.94,3.69,8.51,5.73,17.9,5.73,27.77Z"/>
  </g>
  <path class="cls-1" d="M714.05,584.9c-3.26-4.34-6.01-9.08-8.19-14.12-3.69-8.51-5.73-17.9-5.73-27.77s2.04-19.26,5.73-27.77c2.15-4.97,4.86-9.65,8.05-13.94,9.64-12.97,23.66-22.49,39.87-26.35h0s3.65-.43,3.65-.43l2.75-.63,9.93-.86h-21.54s-.04,0-.06,0c-.02,0-.03,0-.05,0h-2.65l-.02.06c-37.4,1.42-67.28,32.19-67.28,69.94s28.96,67.57,65.55,69.86c1.47.09,2.96.14,4.45.14h18.79l-7.94-.84c-18.49-2.85-34.6-12.93-45.32-27.28Z"/>
</svg>